<svg id="Layer_1" data-name="Layer 1" xmlns="http://www.w3.org/2000/svg" xmlns:xlink="http://www.w3.org/1999/xlink" viewBox="0 0 1000 1000"><defs><style>.cls-1{fill:url(#linear-gradient);}.cls-2{fill:url(#linear-gradient-2);}.cls-3{fill:url(#linear-gradient-3);}.cls-4{fill:url(#linear-gradient-4);}.cls-5{fill:url(#linear-gradient-5);}.cls-6{fill:url(#linear-gradient-6);}.cls-7{fill:url(#linear-gradient-7);}.cls-8{fill:url(#linear-gradient-8);}.cls-9{fill:url(#linear-gradient-9);}.cls-10{fill:url(#linear-gradient-10);}.cls-11{fill:url(#linear-gradient-11);}.cls-12{fill:url(#linear-gradient-12);}.cls-13{fill:url(#linear-gradient-13);}.cls-14{fill:url(#linear-gradient-14);}.cls-15{fill:url(#linear-gradient-15);}</style><linearGradient id="linear-gradient" x1="883" y1="102.06" x2="123.08" y2="712.04" gradientUnits="userSpaceOnUse"><stop offset="0" stop-color="#2999d6"/><stop offset="1" stop-color="#0e287a"/></linearGradient><linearGradient id="linear-gradient-2" x1="903.96" y1="128.18" x2="144.04" y2="738.16" xlink:href="#linear-gradient"/><linearGradient id="linear-gradient-3" x1="873.56" y1="90.31" x2="113.65" y2="700.29" xlink:href="#linear-gradient"/><linearGradient id="linear-gradient-4" x1="962.06" y1="200.56" x2="202.14" y2="810.54" xlink:href="#linear-gradient"/><linearGradient id="linear-gradient-5" x1="687" y1="-142.11" x2="-72.92" y2="467.87" xlink:href="#linear-gradient"/><linearGradient id="linear-gradient-6" x1="710.17" y1="-113.25" x2="-49.75" y2="496.73" xlink:href="#linear-gradient"/><linearGradient id="linear-gradient-7" x1="733.34" y1="-84.39" x2="-26.58" y2="525.59" xlink:href="#linear-gradient"/><linearGradient id="linear-gradient-8" x1="762.36" y1="-48.23" x2="2.44" y2="561.75" xlink:href="#linear-gradient"/><linearGradient id="linear-gradient-9" x1="783.55" y1="-21.83" x2="23.64" y2="588.15" xlink:href="#linear-gradient"/><linearGradient id="linear-gradient-10" x1="815.01" y1="17.37" x2="55.09" y2="627.34" xlink:href="#linear-gradient"/><linearGradient id="linear-gradient-11" x1="843.03" y1="52.27" x2="83.11" y2="662.25" xlink:href="#linear-gradient"/><linearGradient id="linear-gradient-12" x1="875.89" y1="93.21" x2="115.98" y2="703.19" xlink:href="#linear-gradient"/><linearGradient id="linear-gradient-13" x1="903.95" y1="128.16" x2="144.03" y2="738.14" xlink:href="#linear-gradient"/><linearGradient id="linear-gradient-14" x1="859.37" y1="72.62" x2="99.45" y2="682.6" xlink:href="#linear-gradient"/><linearGradient id="linear-gradient-15" x1="981.51" y1="224.79" x2="221.59" y2="834.77" xlink:href="#linear-gradient"/></defs><path class="cls-1" d="M880.1,89.77a88.76,88.76,0,0,0-49.87-15.24H218.05c-1.79,0-3.56.07-5.31.17l-1.61.13c-1.25.09-2.49.21-3.73.36l-1.7.21c-1.31.19-2.6.4-3.89.64l-1.25.22c-1.71.34-3.4.72-5.07,1.16l-.6.17q-2.2.59-4.35,1.29l-1.3.43c-1.25.43-2.49.89-3.72,1.37l-1.16.45c-1.53.63-3.06,1.29-4.55,2l-.07,0q-2.43,1.17-4.79,2.47l-.32.19q-2.1,1.17-4.14,2.46l-.69.44q-2,1.29-3.92,2.68l-.33.23a92.29,92.29,0,0,0-8.3,6.85h0q-2,1.82-3.76,3.73c-.07.06-.13.13-.19.19a89.68,89.68,0,0,0-10.05,12.74L96.33,185.54a88.76,88.76,0,0,0-15.76,50.61V655.23a89.2,89.2,0,0,0,89.2,89.2H347.2l128.66,181,128.66-181H782a89.11,89.11,0,0,0,74.79-40.6l46.94-70.41h0q1.82-2.64,3.44-5.4l.2-.34c1.06-1.82,2.07-3.68,3-5.58h0q1.38-2.82,2.56-5.75l.29-.72c.74-1.88,1.44-3.78,2.05-5.72l.06-.16q.91-2.93,1.63-5.94c.1-.38.18-.76.27-1.15.44-1.92.83-3.85,1.14-5.82,0-.08,0-.17,0-.25.31-2,.54-4,.71-6.09,0-.48.08-1,.11-1.45.14-2.06.24-4.13.24-6.22V163.74A89.11,89.11,0,0,0,880.1,89.77Zm12.78,493.05a62.73,62.73,0,0,1-62.65,62.65H639.09l-7.94,11.17-107,150.58-107-150.58-7.94-11.17H218.05a62.72,62.72,0,0,1-62.65-62.65V163.74a62.71,62.71,0,0,1,62.65-62.65H830.23a62.72,62.72,0,0,1,62.65,62.65Z"/><polygon class="cls-2" points="512.07 435.36 512.07 473.19 544.83 454.28 577.59 435.36 544.83 416.45 512.07 397.53 512.07 435.36"/><polygon class="cls-3" points="524.14 376.63 556.9 395.54 577.59 407.49 577.59 300.87 512.07 300.87 512.07 369.66 524.14 376.63"/><polygon class="cls-4" points="556.9 475.18 524.14 494.1 512.07 501.06 512.07 569.86 577.59 569.86 577.59 463.24 556.9 475.18"/><path class="cls-5" d="M254.09,175.29v80.42H228.87V175.29Z"/><path class="cls-6" d="M339.18,255.71H314l-26.7-40.44v40.44H262V175.29h25.22L314,216.41V175.29h25.22Z"/><path class="cls-7" d="M403.92,175.29v20H372.34v11.13h22.72v19H372.34v30.33H347.12V175.29Z"/><path class="cls-8" d="M434.25,236.63h24.31v19.08H409V175.29h25.22Z"/><path class="cls-9" d="M487.75,175.29v45.32c0,3.71.82,6.65,2.44,8.81s4.26,3.23,7.9,3.23,6.32-1.08,8.06-3.23,2.62-5.1,2.62-8.81V175.29h25.1v45.32q0,11.47-4.77,19.6A30.63,30.63,0,0,1,516,252.42a41.39,41.39,0,0,1-18.52,4.09,38.89,38.89,0,0,1-18.12-4.09,29.12,29.12,0,0,1-12.32-12.16q-4.44-8.06-4.43-19.65V175.29Z"/><path class="cls-10" d="M566.58,195.39v9.89h25v19h-25v11.36H595v20.1H541.37V175.29H595v20.1Z"/><path class="cls-11" d="M678.25,255.71H653l-26.7-40.44v40.44H601.12V175.29h25.21L653,216.41V175.29h25.22Z"/><path class="cls-12" d="M688.75,194.14a35,35,0,0,1,13.8-14.48q9-5.16,21.13-5.17a43,43,0,0,1,18.69,3.92,34.47,34.47,0,0,1,13.4,11.08,40.1,40.1,0,0,1,6.88,16.7H736.06a14.43,14.43,0,0,0-5.16-6.2,13.68,13.68,0,0,0-7.67-2.21,12,12,0,0,0-10.05,4.77q-3.7,4.77-3.7,12.84t3.7,12.83A12,12,0,0,0,723.23,233a13.68,13.68,0,0,0,7.67-2.21,14.4,14.4,0,0,0,5.16-6.19h26.59a40.16,40.16,0,0,1-6.88,16.7,34.45,34.45,0,0,1-13.4,11.07,43,43,0,0,1-18.69,3.92q-12.15,0-21.13-5.17a34.85,34.85,0,0,1-13.8-14.48,49.23,49.23,0,0,1,0-42.49Z"/><path class="cls-13" d="M793.54,195.39v9.89h25v19h-25v11.36h28.4v20.1H768.32V175.29h53.62v20.1Z"/><path class="cls-14" d="M408.61,522.34H308.22l-16.1,47.52H223.53l97.33-269h75.87l97.33,269H424.7Zm-16.86-50.57-33.34-98.48-33,98.48Z"/><path class="cls-15" d="M750.79,569.86,694.84,468.32H679.13V569.86H613.61v-269h110q31.8,0,54.22,11.11t33.53,30.46q11.11,19.35,11.11,43.11,0,26.82-15.13,47.9t-44.64,29.89l62.07,106.52ZM679.13,422h40.62q18,0,27-8.81t9-24.91q0-15.32-9-24.14t-27-8.81H679.13Z"/></svg>